<mxfile host="app.diagrams.net" modified="2022-06-01T04:46:37.838Z" agent="5.0 (Windows NT 10.0; Win64; x64) AppleWebKit/537.36 (KHTML, like Gecko) Chrome/101.0.4951.67 Safari/537.36" etag="Wj5AnFX6zbAIVj5uVyap" version="17.1.1" type="github">
  <diagram id="C5RBs43oDa-KdzZeNtuy" name="Page-1">
    <mxGraphModel dx="1022" dy="649" grid="1" gridSize="10" guides="0" tooltips="1" connect="1" arrows="1" fold="1" page="1" pageScale="1" pageWidth="827" pageHeight="1169" math="0" shadow="0">
      <root>
        <mxCell id="WIyWlLk6GJQsqaUBKTNV-0" />
        <mxCell id="WIyWlLk6GJQsqaUBKTNV-1" parent="WIyWlLk6GJQsqaUBKTNV-0" />
        <mxCell id="dkfDIt5QCicvtu8SSc8x-7" value="" style="edgeStyle=orthogonalEdgeStyle;rounded=0;orthogonalLoop=1;jettySize=auto;html=1;fillColor=#F12EFF;" edge="1" parent="WIyWlLk6GJQsqaUBKTNV-1" target="dkfDIt5QCicvtu8SSc8x-0">
          <mxGeometry relative="1" as="geometry">
            <mxPoint x="360" y="134" as="sourcePoint" />
          </mxGeometry>
        </mxCell>
        <mxCell id="dkfDIt5QCicvtu8SSc8x-9" value="" style="edgeStyle=orthogonalEdgeStyle;rounded=0;orthogonalLoop=1;jettySize=auto;html=1;fillColor=#F12EFF;" edge="1" parent="WIyWlLk6GJQsqaUBKTNV-1" source="dkfDIt5QCicvtu8SSc8x-0" target="dkfDIt5QCicvtu8SSc8x-8">
          <mxGeometry relative="1" as="geometry" />
        </mxCell>
        <mxCell id="dkfDIt5QCicvtu8SSc8x-0" value="get no parst and last body number" style="rounded=0;whiteSpace=wrap;html=1;" vertex="1" parent="WIyWlLk6GJQsqaUBKTNV-1">
          <mxGeometry x="300" y="200" width="120" height="60" as="geometry" />
        </mxCell>
        <mxCell id="dkfDIt5QCicvtu8SSc8x-12" value="" style="edgeStyle=orthogonalEdgeStyle;rounded=0;orthogonalLoop=1;jettySize=auto;html=1;fillColor=#F12EFF;" edge="1" parent="WIyWlLk6GJQsqaUBKTNV-1" source="dkfDIt5QCicvtu8SSc8x-8" target="dkfDIt5QCicvtu8SSc8x-11">
          <mxGeometry relative="1" as="geometry" />
        </mxCell>
        <mxCell id="dkfDIt5QCicvtu8SSc8x-8" value="send&amp;nbsp; no parst and last body number" style="whiteSpace=wrap;html=1;rounded=0;" vertex="1" parent="WIyWlLk6GJQsqaUBKTNV-1">
          <mxGeometry x="300" y="280" width="120" height="60" as="geometry" />
        </mxCell>
        <mxCell id="dkfDIt5QCicvtu8SSc8x-14" value="" style="edgeStyle=orthogonalEdgeStyle;rounded=0;orthogonalLoop=1;jettySize=auto;html=1;fillColor=#F12EFF;" edge="1" parent="WIyWlLk6GJQsqaUBKTNV-1" source="dkfDIt5QCicvtu8SSc8x-11" target="dkfDIt5QCicvtu8SSc8x-13">
          <mxGeometry relative="1" as="geometry" />
        </mxCell>
        <mxCell id="dkfDIt5QCicvtu8SSc8x-17" value="" style="edgeStyle=orthogonalEdgeStyle;rounded=0;orthogonalLoop=1;jettySize=auto;html=1;fillColor=#F12EFF;" edge="1" parent="WIyWlLk6GJQsqaUBKTNV-1" source="dkfDIt5QCicvtu8SSc8x-11" target="dkfDIt5QCicvtu8SSc8x-16">
          <mxGeometry relative="1" as="geometry" />
        </mxCell>
        <mxCell id="dkfDIt5QCicvtu8SSc8x-11" value="Check in &lt;br&gt;DB Daily plan" style="rhombus;whiteSpace=wrap;html=1;rounded=0;" vertex="1" parent="WIyWlLk6GJQsqaUBKTNV-1">
          <mxGeometry x="305" y="364" width="110" height="90" as="geometry" />
        </mxCell>
        <mxCell id="dkfDIt5QCicvtu8SSc8x-24" style="edgeStyle=orthogonalEdgeStyle;rounded=0;orthogonalLoop=1;jettySize=auto;html=1;exitX=0.5;exitY=1;exitDx=0;exitDy=0;entryX=1;entryY=0.617;entryDx=0;entryDy=0;entryPerimeter=0;fillColor=#F12EFF;elbow=vertical;" edge="1" parent="WIyWlLk6GJQsqaUBKTNV-1" source="dkfDIt5QCicvtu8SSc8x-13" target="dkfDIt5QCicvtu8SSc8x-21">
          <mxGeometry relative="1" as="geometry" />
        </mxCell>
        <mxCell id="dkfDIt5QCicvtu8SSc8x-13" value="List data from DB Daily plan" style="whiteSpace=wrap;html=1;rounded=0;" vertex="1" parent="WIyWlLk6GJQsqaUBKTNV-1">
          <mxGeometry x="545.64" y="379" width="120" height="60" as="geometry" />
        </mxCell>
        <mxCell id="dkfDIt5QCicvtu8SSc8x-15" value="Yes" style="text;html=1;strokeColor=none;fillColor=none;align=center;verticalAlign=middle;whiteSpace=wrap;rounded=0;" vertex="1" parent="WIyWlLk6GJQsqaUBKTNV-1">
          <mxGeometry x="440" y="384" width="60" height="30" as="geometry" />
        </mxCell>
        <mxCell id="dkfDIt5QCicvtu8SSc8x-20" value="" style="edgeStyle=orthogonalEdgeStyle;rounded=0;orthogonalLoop=1;jettySize=auto;html=1;fillColor=#F12EFF;" edge="1" parent="WIyWlLk6GJQsqaUBKTNV-1" source="dkfDIt5QCicvtu8SSc8x-16" target="dkfDIt5QCicvtu8SSc8x-19">
          <mxGeometry relative="1" as="geometry" />
        </mxCell>
        <mxCell id="dkfDIt5QCicvtu8SSc8x-16" value="&lt;span&gt;Check in&lt;/span&gt;&lt;br&gt;&lt;span&gt;DB FPM&lt;/span&gt;" style="whiteSpace=wrap;html=1;rounded=0;" vertex="1" parent="WIyWlLk6GJQsqaUBKTNV-1">
          <mxGeometry x="60" y="379" width="120" height="60" as="geometry" />
        </mxCell>
        <mxCell id="dkfDIt5QCicvtu8SSc8x-18" value="No" style="text;html=1;strokeColor=none;fillColor=none;align=center;verticalAlign=middle;whiteSpace=wrap;rounded=0;" vertex="1" parent="WIyWlLk6GJQsqaUBKTNV-1">
          <mxGeometry x="220" y="384" width="60" height="30" as="geometry" />
        </mxCell>
        <mxCell id="dkfDIt5QCicvtu8SSc8x-23" style="edgeStyle=orthogonalEdgeStyle;rounded=0;orthogonalLoop=1;jettySize=auto;elbow=vertical;html=1;fillColor=#F12EFF;entryX=0;entryY=0.5;entryDx=0;entryDy=0;exitX=0.5;exitY=1;exitDx=0;exitDy=0;" edge="1" parent="WIyWlLk6GJQsqaUBKTNV-1" source="dkfDIt5QCicvtu8SSc8x-19" target="dkfDIt5QCicvtu8SSc8x-21">
          <mxGeometry relative="1" as="geometry">
            <mxPoint x="310" y="604" as="targetPoint" />
          </mxGeometry>
        </mxCell>
        <mxCell id="dkfDIt5QCicvtu8SSc8x-19" value="&lt;span&gt;List data from DB FPM&lt;/span&gt;" style="whiteSpace=wrap;html=1;rounded=0;" vertex="1" parent="WIyWlLk6GJQsqaUBKTNV-1">
          <mxGeometry x="60" y="474" width="120" height="60" as="geometry" />
        </mxCell>
        <mxCell id="dkfDIt5QCicvtu8SSc8x-26" value="" style="edgeStyle=orthogonalEdgeStyle;rounded=0;orthogonalLoop=1;jettySize=auto;html=1;fillColor=#F12EFF;elbow=vertical;" edge="1" parent="WIyWlLk6GJQsqaUBKTNV-1" source="dkfDIt5QCicvtu8SSc8x-21" target="dkfDIt5QCicvtu8SSc8x-25">
          <mxGeometry relative="1" as="geometry" />
        </mxCell>
        <mxCell id="dkfDIt5QCicvtu8SSc8x-21" value="set frist body number of no parst in plan =&lt;br&gt;alphabet+(last body number +1)+&quot; - &quot;+(alphabet+(last body number +1 +Qty)-1)" style="whiteSpace=wrap;html=1;rounded=0;" vertex="1" parent="WIyWlLk6GJQsqaUBKTNV-1">
          <mxGeometry x="150" y="569" width="430" height="60" as="geometry" />
        </mxCell>
        <mxCell id="dkfDIt5QCicvtu8SSc8x-28" value="" style="edgeStyle=orthogonalEdgeStyle;rounded=0;orthogonalLoop=1;jettySize=auto;html=1;fillColor=#F12EFF;elbow=vertical;" edge="1" parent="WIyWlLk6GJQsqaUBKTNV-1" source="dkfDIt5QCicvtu8SSc8x-25" target="dkfDIt5QCicvtu8SSc8x-27">
          <mxGeometry relative="1" as="geometry" />
        </mxCell>
        <mxCell id="dkfDIt5QCicvtu8SSc8x-25" value="Last body number&amp;nbsp;&lt;br&gt;&lt;br&gt;&lt;span style=&quot;color: rgb(33 , 37 , 41) ; font-family: , , &amp;#34;segoe ui&amp;#34; , &amp;#34;roboto&amp;#34; , &amp;#34;helvetica neue&amp;#34; , &amp;#34;arial&amp;#34; , &amp;#34;noto sans&amp;#34; , &amp;#34;liberation sans&amp;#34; , sans-serif , &amp;#34;apple color emoji&amp;#34; , &amp;#34;segoe ui emoji&amp;#34; , &amp;#34;segoe ui symbol&amp;#34; , &amp;#34;noto color emoji&amp;#34; ; font-size: 14.4px ; text-align: -webkit-left ; background-color: rgb(255 , 255 , 255)&quot;&gt;YLR01354 - YLR01354&lt;/span&gt;" style="shape=document;whiteSpace=wrap;html=1;boundedLbl=1;rounded=0;" vertex="1" parent="WIyWlLk6GJQsqaUBKTNV-1">
          <mxGeometry x="282.5" y="664" width="165" height="80" as="geometry" />
        </mxCell>
        <mxCell id="dkfDIt5QCicvtu8SSc8x-30" value="" style="edgeStyle=orthogonalEdgeStyle;rounded=0;orthogonalLoop=1;jettySize=auto;html=1;fillColor=#F12EFF;elbow=vertical;" edge="1" parent="WIyWlLk6GJQsqaUBKTNV-1" source="dkfDIt5QCicvtu8SSc8x-27" target="dkfDIt5QCicvtu8SSc8x-29">
          <mxGeometry relative="1" as="geometry" />
        </mxCell>
        <mxCell id="dkfDIt5QCicvtu8SSc8x-27" value="Actual =&amp;nbsp; (Qty - count list get form DB Daily plan and DB FPM)&lt;br&gt;Diff = Qty - Actual" style="whiteSpace=wrap;html=1;rounded=0;" vertex="1" parent="WIyWlLk6GJQsqaUBKTNV-1">
          <mxGeometry x="194.37" y="774" width="341.25" height="60" as="geometry" />
        </mxCell>
        <mxCell id="dkfDIt5QCicvtu8SSc8x-34" value="" style="edgeStyle=orthogonalEdgeStyle;rounded=0;orthogonalLoop=1;jettySize=auto;html=1;fillColor=#F12EFF;elbow=vertical;" edge="1" parent="WIyWlLk6GJQsqaUBKTNV-1" source="dkfDIt5QCicvtu8SSc8x-29" target="dkfDIt5QCicvtu8SSc8x-33">
          <mxGeometry relative="1" as="geometry" />
        </mxCell>
        <mxCell id="dkfDIt5QCicvtu8SSc8x-29" value="Qty = 50 &lt;br&gt;Actual = 35&lt;br&gt;Ditff = -15" style="shape=document;whiteSpace=wrap;html=1;boundedLbl=1;rounded=0;" vertex="1" parent="WIyWlLk6GJQsqaUBKTNV-1">
          <mxGeometry x="305" y="874" width="120" height="80" as="geometry" />
        </mxCell>
        <mxCell id="dkfDIt5QCicvtu8SSc8x-44" value="" style="edgeStyle=orthogonalEdgeStyle;rounded=0;orthogonalLoop=1;jettySize=auto;html=1;fillColor=#F12EFF;elbow=vertical;" edge="1" parent="WIyWlLk6GJQsqaUBKTNV-1" source="dkfDIt5QCicvtu8SSc8x-33" target="dkfDIt5QCicvtu8SSc8x-43">
          <mxGeometry relative="1" as="geometry" />
        </mxCell>
        <mxCell id="dkfDIt5QCicvtu8SSc8x-33" value="&lt;span&gt;Set format data for show display and export excel file&lt;/span&gt;" style="shape=parallelogram;perimeter=parallelogramPerimeter;whiteSpace=wrap;html=1;fixedSize=1;rounded=0;" vertex="1" parent="WIyWlLk6GJQsqaUBKTNV-1">
          <mxGeometry x="278.74" y="994" width="172.51" height="70" as="geometry" />
        </mxCell>
        <mxCell id="dkfDIt5QCicvtu8SSc8x-35" value="&lt;span&gt;input PSWEEK&lt;/span&gt;" style="html=1;strokeWidth=2;shape=manualInput;whiteSpace=wrap;rounded=0;size=26;arcSize=11;shadow=0;" vertex="1" parent="WIyWlLk6GJQsqaUBKTNV-1">
          <mxGeometry x="310" y="120" width="100" height="60" as="geometry" />
        </mxCell>
        <mxCell id="dkfDIt5QCicvtu8SSc8x-41" style="edgeStyle=orthogonalEdgeStyle;rounded=0;orthogonalLoop=1;jettySize=auto;html=1;fillColor=#F12EFF;elbow=vertical;" edge="1" parent="WIyWlLk6GJQsqaUBKTNV-1" source="dkfDIt5QCicvtu8SSc8x-40" target="dkfDIt5QCicvtu8SSc8x-35">
          <mxGeometry relative="1" as="geometry" />
        </mxCell>
        <mxCell id="dkfDIt5QCicvtu8SSc8x-40" value="Start" style="strokeWidth=2;html=1;shape=mxgraph.flowchart.start_2;whiteSpace=wrap;shadow=0;rounded=0;" vertex="1" parent="WIyWlLk6GJQsqaUBKTNV-1">
          <mxGeometry x="325" y="10" width="70" height="70" as="geometry" />
        </mxCell>
        <mxCell id="dkfDIt5QCicvtu8SSc8x-43" value="End" style="strokeWidth=2;html=1;shape=mxgraph.flowchart.terminator;whiteSpace=wrap;shadow=0;rounded=0;" vertex="1" parent="WIyWlLk6GJQsqaUBKTNV-1">
          <mxGeometry x="315" y="1100" width="100" height="60" as="geometry" />
        </mxCell>
      </root>
    </mxGraphModel>
  </diagram>
</mxfile>
